<svg width="1010" height="286" viewBox="0 0 1010 286" fill="none" xmlns="http://www.w3.org/2000/svg">
<path d="M135.572 212.367L110.922 121.985L86.2727 212.367H44.2417L0 56.884H43.2937L68.5754 156.747L90.0595 56.884H131.78L156.112 156.747L179.814 56.884H222.165L177.603 212.367H135.572ZM283.786 181.397C307.386 181.397 319.186 165.385 319.186 133.361C319.186 119.456 315.921 108.132 309.39 99.3883C302.859 90.6446 294.431 86.2731 284.108 86.274C274.206 86.274 265.937 90.3823 259.301 98.5989C252.665 106.815 249.346 117.56 249.345 130.833C249.342 164.542 260.822 181.397 283.786 181.397ZM210.469 286V56.884H249.969L250.285 75.8453C259.766 60.4656 274.198 52.7757 293.58 52.7757C302.892 52.6955 312.111 54.6362 320.6 58.4641C328.88 62.2257 336.179 67.8497 341.928 74.8972C348.165 82.6921 352.882 91.5898 355.833 101.127C359.356 112.48 361.063 124.319 360.889 136.206C361.003 147.15 359.567 158.056 356.622 168.597C354.082 177.78 349.851 186.408 344.144 194.038C338.838 201.058 331.964 206.739 324.07 210.628C315.638 214.644 306.388 216.646 297.05 216.475C277.881 216.475 262.501 208.364 250.911 192.141V285.999L210.469 286ZM535.656 212.367V118.192C535.656 108.712 533.444 101.022 529.02 95.1227C527.022 92.3086 524.363 90.0294 521.277 88.4862C518.191 86.943 514.772 86.1833 511.322 86.274C507.659 86.2366 504.039 87.0779 500.768 88.7274C497.496 90.377 494.668 92.7867 492.52 95.7547C487.569 102.075 485.094 109.976 485.094 119.456V212.367H444.011V118.824C444.109 113.633 443.686 108.446 442.747 103.339C442.15 99.8691 440.682 96.6072 438.481 93.8586C436.43 91.509 433.74 89.8068 430.738 88.9595C427.034 87.9402 423.202 87.461 419.361 87.5368C402.717 87.5368 394.395 97.6495 394.395 117.875V212.367H353.313V56.884H391.867V79.6376C397.134 69.3142 403.455 62.2564 410.829 58.4641C418.202 54.6718 427.051 52.7757 437.374 52.7757C442.092 52.7248 446.804 53.1483 451.437 54.0398C455.345 54.8046 459.088 56.2483 462.498 58.3054C465.941 60.4536 469.077 63.0584 471.821 66.0486C475.073 69.5958 478.032 73.4005 480.669 77.4254C484.883 68.7875 490.466 62.5195 497.419 58.6214C504.371 54.7234 512.798 52.7743 522.7 52.7743C530.051 52.6915 537.349 54.0327 544.19 56.7239C550.484 59.2005 556.19 62.9684 560.939 67.7847C565.602 72.5667 569.303 78.1992 571.843 84.3766C574.494 90.7877 575.837 97.6642 575.793 104.602V212.367H535.656ZM645.632 182.029C670.703 182.029 683.238 166.228 683.238 134.625C683.238 103.234 670.703 87.5381 645.632 87.5381C620.561 87.5381 608.025 103.234 608.025 134.625C608.025 166.228 620.561 182.029 645.632 182.029ZM645.632 216.479C634.078 216.674 622.596 214.633 611.817 210.468C602.34 206.749 593.772 201.037 586.694 193.719C579.69 186.298 574.356 177.462 571.05 167.808C567.377 157.135 565.56 145.912 565.678 134.625C565.541 123.22 567.413 111.88 571.209 101.124C574.625 91.4498 580.066 82.6152 587.168 75.2106C594.263 67.952 602.829 62.2949 612.291 58.6187C622.932 54.5688 634.247 52.5844 645.632 52.7716C656.861 52.5921 668.02 54.5773 678.498 58.6187C687.836 62.2814 696.291 67.8823 703.306 75.0519C710.344 82.4172 715.73 91.1977 719.107 100.808C722.92 111.668 724.792 123.114 724.639 134.623C724.802 146.083 722.929 157.481 719.107 168.287C715.68 177.873 710.299 186.644 703.306 194.043C696.287 201.319 687.767 206.979 678.339 210.629C667.908 214.643 656.807 216.627 645.632 216.475V216.479ZM790.686 182.978C801.009 182.978 809.436 178.607 815.968 169.864C822.499 161.121 825.764 149.797 825.764 135.891C825.764 103.867 813.964 87.8555 790.364 87.8555C767.397 87.8555 755.914 104.71 755.914 138.419C755.914 151.692 759.232 162.437 765.869 170.653C772.506 178.87 780.778 182.978 790.686 182.977V182.978ZM717.053 212.367V0H757.503V77.1094C769.091 60.8869 784.471 52.7757 803.643 52.7757C812.981 52.6053 822.231 54.607 830.663 58.6228C838.557 62.5121 845.431 68.1941 850.737 75.2146C856.443 82.8437 860.675 91.4713 863.215 100.654C866.16 111.196 867.596 122.102 867.482 133.047C867.656 144.933 865.949 156.772 862.425 168.125C859.472 177.662 854.753 186.56 848.512 194.354C842.764 201.401 835.465 207.025 827.186 210.787C818.696 214.615 809.477 216.556 800.165 216.475C780.782 216.475 766.351 208.785 756.87 193.406L756.554 212.367H717.053ZM861.159 212.367V56.884H902.242V212.367H861.159ZM861.159 38.2387V0H902.242V38.2387H861.159ZM914.25 212.367V0H955.333V212.367H914.25ZM965.13 212.367V169.704H1009.06V212.367H965.13Z" fill="#424141"/>
</svg>
